# xmcd CD database file
#
# Track frame offsets:
#	150
#	24977
#	37605
#	60940
#	86465
#	115030
#	140940
#
# Disc length: 2276 seconds
#
# Revision: 0
# Processed by: cddbd v1.5.1PL2 Copyright (c) Steve Scherf et al.
# Submitted via: CDex 1.60beta1
#
DISCID=4a08e207
DTITLE=j.r.monterose - straight ahead
DYEAR=1900
DGENRE=Jazz
TTITLE0=straight ahead
TTITLE1=violets for your furs
TTITLE2=chafic
TTITLE3=i remember clifford
TTITLE4=green street scene
TTITLE5=you know that
TTITLE6=short bridge
EXTD=
EXTT0=
EXTT1=
EXTT2=
EXTT3=
EXTT4=
EXTT5=
EXTT6=
PLAYORDER=
